<svg xmlns="http://www.w3.org/2000/svg" viewBox="0 0 238.12 28.13"><defs><style>.cls-1{fill:#eee8cb;}.cls-2{fill:#8d652e;}.cls-3{fill:#f7e636;}.cls-4{fill:#dcc72f;}.cls-5{fill:#f4f4f4;}.cls-6{fill:#6eaade;}.cls-7{fill:#92755a;}.cls-8{fill:#7f664e;}.cls-9{fill:#bcd73d;}.cls-10{fill:#cfe561;}.cls-11{fill:#f0ffaf;}.cls-12{fill:#424548;}.cls-13{fill:#95bd58;}.cls-13,.cls-15{fill-rule:evenodd;}.cls-14{fill:#897053;}.cls-15{fill:#cf4e3f;}.cls-16{fill:#708739;}.cls-17{fill:#9f613c;}.cls-18{fill:#d5a456;}.cls-19{fill:#91af42;}.cls-20{fill:#9dc44c;}</style></defs><g id="Calque_2" data-name="Calque 2"><g id="Calque_1-2" data-name="Calque 1"><path class="cls-1" d="M20.9,18.83c-3,4.39-7.87.56-4.83-3.83,5.52-5.3,5.38-12.86,7.47-13.12C26.17,1.57,28.12,9.38,20.9,18.83Z"/><path class="cls-2" d="M1.62,18.16,0,19.54a13,13,0,0,0,1.35,1.78A13.4,13.4,0,0,0,3.66,19,11.47,11.47,0,0,1,1.62,18.16Z"/><path class="cls-3" d="M15.1,8.5A5.91,5.91,0,0,0,9.53,10c3.18-1.7,7.9,2.17,7.21,3.4a11.34,11.34,0,0,1-12,5.84c-.36-.07-.7-.16-1-.26a13.4,13.4,0,0,1-2.31,2.33C8,24.61,15.85,22.67,19.2,16,20.56,13.34,18,9.23,15.1,8.5Z"/><path class="cls-4" d="M28.12,19.31a6.22,6.22,0,0,0-3.83-3.95A4.82,4.82,0,0,0,19.2,16,11.93,11.93,0,0,1,6.55,22.17a11.55,11.55,0,0,1-4.2-1.72c-.33.31-.68.61-1,.87a12.5,12.5,0,0,0,7,4,12.29,12.29,0,0,0,11.44-3.89C24.16,15.88,28.12,19.31,28.12,19.31Z"/><path class="cls-5" d="M15.26,18.33c1.37-.86,2.07-2.3,1.56-3.22a1.38,1.38,0,0,0-.77-.61l-.25.36a1,1,0,0,1,.56.47c.42.74-.15,1.92-1.26,2.62s-2.28.65-2.73,0c-.17.11-.35.2-.53.3,0,0,0,0,0,0C12.36,19.15,13.89,19.19,15.26,18.33Z"/><path class="cls-6" d="M12.37,17.91c.45.69,1.64.72,2.73,0s1.68-1.88,1.26-2.62a1,1,0,0,0-.56-.47A12,12,0,0,1,12.37,17.91Z"/><path class="cls-3" d="M28.12,19.31c.1,2.48-1.72,6.4-4.84,6.92s3.95-9.29-.76-11.28C22.52,15,27.94,14.94,28.12,19.31Z"/><path class="cls-4" d="M15.9,8.79c-7-2.86-9.32,5.93-5.84,4.88C11.32,13.3,12,10.71,15.9,8.79Z"/><path class="cls-7" d="M86.71,28.13C64.43,28.13,64.43,0,86.71,0Z"/><ellipse class="cls-8" cx="86.71" cy="14.06" rx="11.41" ry="14.06"/><ellipse class="cls-9" cx="86.71" cy="14.06" rx="10.75" ry="13.25"/><ellipse class="cls-10" cx="86.71" cy="14.06" rx="9.4" ry="11.58"/><path class="cls-9" d="M94.1,16.54c-.15.66-2.89,0-3.16.56s1.55,3.18,1.16,3.66-2.48-1.8-3-1.47.06,3.72-.47,3.89-1.42-3.09-2-3.09-1.45,3.25-2,3.07,0-3.56-.46-3.89-2.59,1.91-3,1.44,1.46-3.07,1.19-3.65-3,.07-3.16-.59,2.51-1.75,2.51-2.43-2.64-1.78-2.49-2.45,2.89,0,3.15-.56-1.54-3.19-1.16-3.66,2.49,1.79,3,1.46,0-3.71.48-3.89S86.18,8,86.73,8s1.45-3.25,2-3.07,0,3.56.46,3.89,2.58-1.9,3-1.43S90.69,10.48,91,11.07s3-.07,3.15.58-2.5,1.75-2.5,2.43S94.25,15.87,94.1,16.54Z"/><polygon class="cls-11" points="92.96 14.06 89.18 14.88 92.12 17.91 88.52 16.28 89.84 20.72 87.38 17.1 86.71 21.75 86.05 17.1 83.59 20.72 84.91 16.28 81.31 17.91 84.25 14.88 80.47 14.06 84.25 13.25 81.31 10.21 84.91 11.84 83.59 7.4 86.05 11.03 86.71 6.37 87.38 11.03 89.84 7.4 88.52 11.84 92.12 10.21 89.18 13.25 92.96 14.06"/><polygon class="cls-12" points="85.42 7.21 85.22 8.34 85.83 9.23 86.03 8.1 85.42 7.21"/><polygon class="cls-12" points="84.23 5.63 84.02 6.76 84.63 7.65 84.84 6.51 84.23 5.63"/><polygon class="cls-12" points="88.47 6.96 87.67 7.58 87.59 8.74 88.39 8.12 88.47 6.96"/><polygon class="cls-12" points="88 20.91 88.21 19.78 87.6 18.89 87.39 20.03 88 20.91"/><polygon class="cls-12" points="89.2 22.5 89.41 21.36 88.79 20.48 88.58 21.61 89.2 22.5"/><polygon class="cls-12" points="84.96 21.16 85.76 20.54 85.83 19.38 85.04 20 84.96 21.16"/><polygon class="cls-12" points="92.27 12.47 91.35 12.21 90.64 12.97 91.56 13.22 92.27 12.47"/><polygon class="cls-12" points="93.56 11 92.64 10.75 91.92 11.5 92.84 11.76 93.56 11"/><polygon class="cls-12" points="92.47 16.22 91.97 15.24 91.03 15.14 91.53 16.13 92.47 16.22"/><polygon class="cls-12" points="81.15 15.65 82.07 15.91 82.79 15.16 81.87 14.9 81.15 15.65"/><polygon class="cls-12" points="79.87 17.12 80.79 17.38 81.51 16.63 80.59 16.37 79.87 17.12"/><polygon class="cls-12" points="80.95 11.9 81.46 12.89 82.4 12.98 81.89 12 80.95 11.9"/><polygon class="cls-12" points="91.17 9.67 90.25 9.93 89.87 10.99 90.79 10.73 91.17 9.67"/><polygon class="cls-12" points="91.81 7.66 90.89 7.92 90.51 8.98 91.43 8.72 91.81 7.66"/><polygon class="cls-12" points="81.61 20.46 82.53 20.21 82.92 19.15 82 19.4 81.61 20.46"/><polygon class="cls-12" points="83.15 8.57 83.36 9.7 84.22 10.18 84.01 9.04 83.15 8.57"/><polygon class="cls-12" points="81.52 7.78 81.73 8.91 82.59 9.38 82.38 8.25 81.52 7.78"/><polygon class="cls-12" points="91.91 20.35 91.7 19.21 90.84 18.74 91.05 19.87 91.91 20.35"/><path class="cls-13" d="M153.8,1.36c.53,1.16-.25,5.09-.25,5.09S150,4.38,149.5,3.22a2.26,2.26,0,0,1,1.19-3A2.37,2.37,0,0,1,153.8,1.36Z"/><path class="cls-14" d="M154.68,6.71h-1.23a5.23,5.23,0,0,1,5.63-5.44v1.2A4.25,4.25,0,0,0,154.68,6.71Z"/><path class="cls-15" d="M154.06,6.49c-3.4-3.49-13.59-3.64-13.59,6.32,0,6.29,7.4,15.32,10.62,15.32,1.47,0,2-.92,2.85-.92s1.14.91,3,.91c3.23,0,10.71-9,10.71-15.31C167.66,2.85,157.46,3,154.06,6.49Z"/><path class="cls-16" d="M217,4.33c2.29,2.29,2.66,3.85,1.92,4.59s-2.3.37-4.59-1.92A20,20,0,0,1,210.61.61,20,20,0,0,1,217,4.33Z"/><path class="cls-16" d="M220.18,5.68c1.37,2.94,1.17,4.53.23,5s-2.28-.43-3.66-3.37A20,20,0,0,1,215.44,0,19.91,19.91,0,0,1,220.18,5.68Z"/><path class="cls-16" d="M223,9c-1.35,3-2.68,3.83-3.63,3.4s-1.15-2,.2-5a19.92,19.92,0,0,1,4.69-5.71A20,20,0,0,1,223,9Z"/><path class="cls-16" d="M221.68,7.48c-.19,3.24-1.11,4.54-2.15,4.48s-1.81-1.46-1.62-4.7a20,20,0,0,1,2.3-7A19.94,19.94,0,0,1,221.68,7.48Z"/><path class="cls-16" d="M224.63,10.3c-2.09,2.49-3.61,3-4.41,2.31s-.57-2.25,1.51-4.73a20,20,0,0,1,6.05-4.27A20,20,0,0,1,224.63,10.3Z"/><path class="cls-16" d="M215.68,10.18c2.94,1.37,4.53,1.17,5,.23s-.43-2.28-3.37-3.66A20,20,0,0,0,210,5.44,20.08,20.08,0,0,0,215.68,10.18Z"/><path class="cls-16" d="M219,13c2.95-1.35,3.83-2.68,3.4-3.63s-2-1.15-5,.2a19.92,19.92,0,0,0-5.71,4.69A20,20,0,0,0,219,13Z"/><path class="cls-16" d="M217.48,11.68c3.24-.19,4.54-1.11,4.48-2.15s-1.46-1.81-4.7-1.62a20,20,0,0,0-7,2.3A19.94,19.94,0,0,0,217.48,11.68Z"/><path class="cls-16" d="M220.3,14.63c2.49-2.09,3-3.61,2.31-4.41s-2.25-.57-4.73,1.51a20,20,0,0,0-4.27,6.05A20,20,0,0,0,220.3,14.63Z"/><path class="cls-17" d="M235.27,13.69c3.75,3.75,2.7,7.88-.5,11.08s-7.34,4.25-11.08.5S216.78,13.18,220,10,231.52,9.94,235.27,13.69Z"/><path class="cls-18" d="M231.12,21.12c-.46.46-1,2-.57,2.46s2-.11,2.46-.57,1-2,.57-2.46S231.57,20.66,231.12,21.12Z"/><path class="cls-18" d="M233.85,23.85c-.46.45-.86,2.17-.43,2.59s3.45-2.6,3-3S234.3,23.39,233.85,23.85Z"/><path class="cls-18" d="M225.39,15.39c-.46.46-1,2-.57,2.46s2-.11,2.46-.57,1-2,.57-2.46S225.85,14.93,225.39,15.39Z"/><path class="cls-18" d="M228.25,18.25c-.45.46-1,2-.56,2.46s2-.11,2.46-.56,1-2,.56-2.46S228.71,17.8,228.25,18.25Z"/><path class="cls-18" d="M222.64,12.64c-.45.46-1,2-.56,2.46s2-.11,2.46-.56,1-2,.56-2.46S223.1,12.19,222.64,12.64Z"/><path class="cls-18" d="M222.72,23.44c-.65.65-.47,2.72,1.68,3.26.57.15,1.64-3.49,1.22-3.91C224.83,22,223.13,23,222.72,23.44Z"/><path class="cls-18" d="M226.15,26.09c-1.64,1.63,1.1,2.68,2.2,1.58a1.79,1.79,0,0,0,.13-2C228.06,25.23,226.57,25.67,226.15,26.09Z"/><path class="cls-18" d="M226.94,22c-.45.46-1,2.39-.56,2.81s2.45,0,2.91-.47.71-2.26.29-2.68S227.4,21.57,226.94,22Z"/><path class="cls-18" d="M229.85,24.93c-.46.46-.83,2.2-.41,2.62.79.79,2.28.17,2.73-.29s.72-2.31.3-2.73S230.3,24.47,229.85,24.93Z"/><path class="cls-18" d="M224.16,19.25c-.46.45-1.1,2.27-.68,2.69s2.4-.07,2.85-.52.83-2.2.41-2.62S224.62,18.79,224.16,19.25Z"/><path class="cls-18" d="M218.71,13.72a1.94,1.94,0,0,0-.25,2.14,1.94,1.94,0,0,0,2.14-.25c.46-.45,1-2,.57-2.46S219.16,13.26,218.71,13.72Z"/><path class="cls-18" d="M218.74,16.9c-.42.42.35,3.05.77,2.63s1.15-2.19.72-2.61A1,1,0,0,0,218.74,16.9Z"/><path class="cls-18" d="M220.46,20.32c-.54.54-.65,2.91.87,3.12.58.08,1.95-3,1.52-3.42S220.88,19.9,220.46,20.32Z"/><path class="cls-18" d="M221.36,16.45c-.46.45-.86,2.21-.44,2.64s2.24.07,2.7-.39.75-2.21.33-2.64S221.82,16,221.36,16.45Z"/><path class="cls-18" d="M233.44,12.72c.65-.65,2.72-.48,3.26,1.68.15.57-3.49,1.64-3.91,1.22C232,14.83,233,13.13,233.44,12.72Z"/><path class="cls-18" d="M236.09,16.15c1.63-1.64,2.68,1.1,1.58,2.2a1.79,1.79,0,0,1-2,.13C235.23,18.05,235.67,16.57,236.09,16.15Z"/><path class="cls-18" d="M232,16.94c.46-.45,2.39-1,2.81-.56s0,2.45-.47,2.91-2.26.71-2.68.29S231.57,17.4,232,16.94Z"/><path class="cls-18" d="M234.93,19.84c.46-.45,2.2-.82,2.62-.4.79.79.17,2.28-.29,2.73s-2.31.72-2.73.3S234.47,20.3,234.93,19.84Z"/><path class="cls-18" d="M229.25,14.16c.45-.46,2.27-1.1,2.69-.68s-.06,2.4-.52,2.85-2.2.83-2.62.41S228.79,14.62,229.25,14.16Z"/><path class="cls-18" d="M223.72,8.71a1.94,1.94,0,0,1,2.14-.25,1.94,1.94,0,0,1-.25,2.14c-.45.46-2,1-2.46.57S223.26,9.16,223.72,8.71Z"/><path class="cls-18" d="M226.9,8.74c.42-.42,3,.35,2.63.77s-2.19,1.15-2.61.72A1,1,0,0,1,226.9,8.74Z"/><path class="cls-18" d="M230.32,10.46c.54-.54,2.91-.65,3.12.87.08.58-3,1.95-3.42,1.52S229.9,10.88,230.32,10.46Z"/><path class="cls-18" d="M226.45,11.36c.45-.45,2.21-.86,2.64-.44s.07,2.24-.39,2.7-2.21.75-2.64.33S226,11.82,226.45,11.36Z"/><path class="cls-19" d="M219.33,7.7c1.75,1.75,2.12,2.85,1.67,3.3s-1.55.08-3.3-1.67a18.19,18.19,0,0,1-3-4.67A18.19,18.19,0,0,1,219.33,7.7Z"/><path class="cls-19" d="M221.12,13.83c1.55-1.24,1.77-2.25,1.25-2.85s-1.59-.56-3.14.68a10.14,10.14,0,0,0-2.47,3.83A10.81,10.81,0,0,0,221.12,13.83Z"/><path class="cls-19" d="M219.09,10.39c2.18,0,3.22.55,3.39,1.27s-.62,1.31-2.8,1.34a15.63,15.63,0,0,1-5.11-1.26A11,11,0,0,1,219.09,10.39Z"/><path class="cls-19" d="M218.86,8.62C221.1,9.23,222,10,222,10.74s-1,1-3.25.39a17.76,17.76,0,0,1-4.86-2.59A13.24,13.24,0,0,1,218.86,8.62Z"/><path class="cls-19" d="M223.83,11.12c-1.24,1.55-2.25,1.77-2.85,1.25s-.56-1.59.68-3.14a10.14,10.14,0,0,1,3.83-2.47A10.81,10.81,0,0,1,223.83,11.12Z"/><path class="cls-19" d="M220.39,9.09c0,2.18.55,3.22,1.27,3.39s1.32-.62,1.34-2.8a15.63,15.63,0,0,0-1.26-5.11A11,11,0,0,0,220.39,9.09Z"/><path class="cls-19" d="M218.62,8.86C219.23,11.1,220,12,220.74,12s1-1,.39-3.25a17.76,17.76,0,0,0-2.59-4.86A13.24,13.24,0,0,0,218.62,8.86Z"/><path class="cls-20" d="M223,9.63a6.27,6.27,0,0,0-1.57-1.79,9.59,9.59,0,0,0-.56,1.7c-1-.43-2.64-1.28-2.64-1.28s.85,1.65,1.28,2.64a9.59,9.59,0,0,0-1.7.56A6.27,6.27,0,0,0,219.63,13a8.8,8.8,0,0,0-1.16,2.56,12.63,12.63,0,0,0,4.59-2.53,12.63,12.63,0,0,0,2.53-4.59A8.8,8.8,0,0,0,223,9.63Z"/></g></g></svg>