<svg xmlns="http://www.w3.org/2000/svg" viewBox="0 0 204.49 44.65"><defs><style>.cls-1{fill:#c52d2b;}</style></defs><g id="Calque_2" data-name="Calque 2"><g id="Calque_1-2" data-name="Calque 1"><path class="cls-1" d="M20.8,13.45a16.46,16.46,0,0,0-8.58,2.37,18,18,0,0,0-6.35,6.43,17.11,17.11,0,0,0-2.37,8.8,6.53,6.53,0,0,0,2.25,5.2Q8,38.2,12.9,38.2a16.16,16.16,0,0,0,5.9-1.05,13.9,13.9,0,0,0,4.45-2.67,8.76,8.76,0,0,0,2.35-3.23,2.67,2.67,0,0,0-.78-1.73,3.79,3.79,0,0,0-2.77-.77c-.93,0-2,1-3.1,3.1a3.58,3.58,0,0,1-2.2,1.4,10.41,10.41,0,0,1-3.1.55,6.22,6.22,0,0,1-3.33-.75A2.41,2.41,0,0,1,9.15,30.9a6.16,6.16,0,0,1,.2-1.55c1.77-.63,4.07-1.42,6.9-2.35,3.13-1.07,5.4-1.89,6.8-2.48a9.84,9.84,0,0,0,3.22-2,3.88,3.88,0,0,0,1.13-2.87A5.67,5.67,0,0,0,25.5,15a7.17,7.17,0,0,0-4.7-1.57Zm-10,11.3a10.77,10.77,0,0,1,2.3-3.1,18.58,18.58,0,0,1,3.57-2.8,6.88,6.88,0,0,1,3.43-1.15,2.74,2.74,0,0,1,1.4.37,1.12,1.12,0,0,1,.65,1c0,.9-1.07,1.81-3.2,2.72s-4.85,1.91-8.15,3Z" transform="translate(-3.5 -3.5)"/><path class="cls-1" d="M36.3,12.8a11.53,11.53,0,0,0-3,.32c-.73.22-1.1.5-1.1.83a.49.49,0,0,0,.15.35l1.15,1.5Q31.24,24.31,30,29.6T28.7,35.45a1.44,1.44,0,0,0,.85,1.5,7,7,0,0,0,2.5.35A5.82,5.82,0,0,0,34.17,37,1.37,1.37,0,0,0,35,36.3a5.92,5.92,0,0,0,.28-1.45,11.2,11.2,0,0,1,.35-2.3c.13-.47.28-1,.45-1.73l.55-2.22L38,23.3A10,10,0,0,1,40.82,21,33.76,33.76,0,0,1,45,19c.53-.2.9-.35,1.1-.45q-1.4,5.5-2.5,10.05Q41.8,36,41.4,37.05c0,.93,1.15,1.4,3.45,1.4A6.24,6.24,0,0,0,47,38.2a1.5,1.5,0,0,0,.87-.75,9.25,9.25,0,0,0,.48-1.8l.3-1.4q2.2-9.64,3.15-12.7a9.25,9.25,0,0,1,3.52-2.2,11.61,11.61,0,0,1,3.78-1.1c.07,0,.12.11.17.32a2.86,2.86,0,0,1,.08.63,19.25,19.25,0,0,1-1,3.85c-.77,2.4-1.39,4.56-1.88,6.47a27.61,27.61,0,0,0-.82,5.68,3.74,3.74,0,0,1,0,.55,3.74,3.74,0,0,0,0,.55,3.42,3.42,0,0,0,.55,2,2,2,0,0,0,1.75.8,5.78,5.78,0,0,0,3.12-.68,4.54,4.54,0,0,0,1.68-1.82l-.7-2.45a29.9,29.9,0,0,1,.82-5.42c.45-1.85,1.1-4.13,1.93-6.83.13-.43.34-1.13.62-2.08a21.44,21.44,0,0,0,.58-2.22,4.12,4.12,0,0,0,0-.7,2.59,2.59,0,0,0-1.6-2.48,8,8,0,0,0-3.5-.77,9.49,9.49,0,0,0-4.2,1.23,17.77,17.77,0,0,0-4.25,3,4.85,4.85,0,0,0-1.13-3.33,5.26,5.26,0,0,0-3.47-.87,10,10,0,0,0-4.45,1.62A16.36,16.36,0,0,0,39,18.6l.25-1.2c.07-.47.13-.83.2-1.1a5.91,5.91,0,0,0-.75-2.53,2.54,2.54,0,0,0-2.35-1Z" transform="translate(-3.5 -3.5)"/><path class="cls-1" d="M81.5,12.85a12.71,12.71,0,0,0-11.63,7A15.46,15.46,0,0,0,68.2,27a11.72,11.72,0,0,0,2.45,7.65,8.35,8.35,0,0,0,6.85,3,11.94,11.94,0,0,0,7.1-2.2,15.08,15.08,0,0,0,4.82-5.65,15.5,15.5,0,0,0,1.73-7,8.31,8.31,0,0,0-.4-2.35,7.31,7.31,0,0,0-1.2-2.38,2.72,2.72,0,0,0-2-1.12,1.79,1.79,0,0,0,.67-.85,2.81,2.81,0,0,0,.23-1.05,1.31,1.31,0,0,0-.35-.82,2.07,2.07,0,0,0-.8-.63q-1.5-.75-5.85-.75ZM78.25,33.5a3.41,3.41,0,0,1-1.93-.68A5.21,5.21,0,0,1,74.7,31a5.4,5.4,0,0,1-.65-2.63,14,14,0,0,1,1-5,11.28,11.28,0,0,1,2.7-4.2A5.37,5.37,0,0,1,81.5,17.5c1.23,0,1.85.25,1.85.75a1.57,1.57,0,0,1-.13.5,1.83,1.83,0,0,0-.12.55.76.76,0,0,0,.27.52,5.51,5.51,0,0,0,.63.53,6.41,6.41,0,0,1,1,.95,1.52,1.52,0,0,1,.38,1,13.89,13.89,0,0,1-1.1,5.45,11.94,11.94,0,0,1-2.78,4.17,4.82,4.82,0,0,1-3.27,1.58Z" transform="translate(-3.5 -3.5)"/><path class="cls-1" d="M104.2,3.5a3.32,3.32,0,0,0-2.73,1.2,4.24,4.24,0,0,0-1,2.75,3.32,3.32,0,0,0,.92,2.43,3.74,3.74,0,0,0,2.73.92,5.27,5.27,0,0,0,3.25-1.05,3.07,3.07,0,0,0,1.4-2.5,3.34,3.34,0,0,0-1.38-2.6A4.84,4.84,0,0,0,104.2,3.5Zm-.4,9.3a5.6,5.6,0,0,0-2.6.47,1.85,1.85,0,0,0-.85,1.78,4.53,4.53,0,0,0,.05.75L95,38.1a10.43,10.43,0,0,1-1.88,4.25,3.69,3.69,0,0,1-3,1.5,5.16,5.16,0,0,1-2.48-.43,3.36,3.36,0,0,1-1.12-1c-.27-.4-.53-.6-.8-.6a2.86,2.86,0,0,0-1.93.47,2,2,0,0,0-.47,1.43,3.15,3.15,0,0,0,1.1,2.37,7.14,7.14,0,0,0,2.65,1.55,8.66,8.66,0,0,0,2.85.53q4.75,0,7.35-2.65a17.27,17.27,0,0,0,4-7.9q2-7.65,5.3-21.3a4,4,0,0,0,.1-.8,2.86,2.86,0,0,0-.68-1.9,2.62,2.62,0,0,0-2.12-.8Z" transform="translate(-3.5 -3.5)"/><path class="cls-1" d="M116.7,13.3a4.59,4.59,0,0,0-2.5.52,2.62,2.62,0,0,0-1,1.63L110.05,28.8a8.38,8.38,0,0,0-.25,1.85,10.19,10.19,0,0,0,1.27,5.62q1.28,1.93,4.38,1.93a9.05,9.05,0,0,0,5.15-2,15.94,15.94,0,0,0,4.8-6.1L123.3,36c0,1,1.17,1.55,3.5,1.55a4.17,4.17,0,0,0,1.82-.33A1.6,1.6,0,0,0,129.5,36q.41-2.1,2.3-9.75,1.69-6.26,2.5-10a4.83,4.83,0,0,0,.3-1.25c0-1.07-.9-1.6-2.7-1.6a6.2,6.2,0,0,0-2.1.27,1.82,1.82,0,0,0-1,.8,7.64,7.64,0,0,0-.52,1.63,30.75,30.75,0,0,1-2.78,7,49.31,49.31,0,0,1-4.57,7.4q-2.4,3.15-3.8,3.15c-1,0-1.5-.63-1.5-1.9a5.26,5.26,0,0,1,.3-1.65l3.1-13.4a13.49,13.49,0,0,0,.3-1.9c0-1-.88-1.45-2.65-1.45Z" transform="translate(-3.5 -3.5)"/><path class="cls-1" d="M145.8,3.5a3.32,3.32,0,0,0-2.73,1.2,4.24,4.24,0,0,0-1,2.75A3.32,3.32,0,0,0,143,9.88a3.74,3.74,0,0,0,2.73.92A5.29,5.29,0,0,0,149,9.75a3.07,3.07,0,0,0,1.4-2.5A3.34,3.34,0,0,0,149,4.65,4.84,4.84,0,0,0,145.8,3.5Zm-1.15,9.3a11.53,11.53,0,0,0-3.05.32c-.73.22-1.1.5-1.1.83a.49.49,0,0,0,.15.35l1.15,1.5q-2.2,8.5-3.48,13.8t-1.27,5.85a1.44,1.44,0,0,0,.85,1.5,6.92,6.92,0,0,0,2.5.35,4.83,4.83,0,0,0,2.22-.4,1.33,1.33,0,0,0,.53-1.2l-.05-1.4a7.38,7.38,0,0,1,.2-1.75q1.39-5.44,4-16.25a6.34,6.34,0,0,0-.53-2.53c-.31-.65-1-1-2.17-1Z" transform="translate(-3.5 -3.5)"/><path class="cls-1" d="M165.35,13.45a15.05,15.05,0,0,0-7.93,2.07,14,14,0,0,0-5.27,5.73,18.13,18.13,0,0,0-1.85,8.35,7.92,7.92,0,0,0,4.92,7.65,12.14,12.14,0,0,0,4.78,1,13.45,13.45,0,0,0,6.05-1.43A18.71,18.71,0,0,0,171,33.35a10,10,0,0,0,2.58-3.65c-.3-1.83-1.29-2.75-3-2.75a2.15,2.15,0,0,0-1.28.6,25.56,25.56,0,0,0-2,1.9,27.19,27.19,0,0,1-3.45,3.22,5.25,5.25,0,0,1-3.2,1.13,4.49,4.49,0,0,1-3.23-1.13,3.52,3.52,0,0,1-1.17-2.62,15.52,15.52,0,0,1,1.25-6.38,12.39,12.39,0,0,1,3-4.4,5.3,5.3,0,0,1,3.3-1.57,2.61,2.61,0,0,1,1.9.6,5.74,5.74,0,0,1,1.1,1.75,5.53,5.53,0,0,0,1,1.62,2.3,2.3,0,0,0,1.68.53,3.07,3.07,0,0,0,2.2-.72,2.46,2.46,0,0,0,.75-1.83,5.62,5.62,0,0,0-2.18-4.5,7.8,7.8,0,0,0-5-1.7Z" transform="translate(-3.5 -3.5)"/><path class="cls-1" d="M192.1,13.45a16.46,16.46,0,0,0-8.58,2.37,18,18,0,0,0-6.35,6.43,17.11,17.11,0,0,0-2.37,8.8,6.53,6.53,0,0,0,2.25,5.2q2.25,1.95,7.15,2a16.16,16.16,0,0,0,5.9-1.05,13.9,13.9,0,0,0,4.45-2.67,8.87,8.87,0,0,0,2.35-3.23,2.23,2.23,0,0,0-.5-1.58,1.73,1.73,0,0,0-1.3-.52,3.79,3.79,0,0,0-1.78.5A4.38,4.38,0,0,0,191.8,31a6,6,0,0,1-3.18,2.15,12.59,12.59,0,0,1-3.67.65,6.2,6.2,0,0,1-3.33-.75,2.41,2.41,0,0,1-1.17-2.15,5.73,5.73,0,0,1,.2-1.55,64.63,64.63,0,0,0,9.17-1.43,16.27,16.27,0,0,0,6.35-2.9,6.42,6.42,0,0,0,2.53-5.37A5.7,5.7,0,0,0,196.8,15a7.19,7.19,0,0,0-4.7-1.57Zm-10,11.3a10.77,10.77,0,0,1,2.3-3.1,18.58,18.58,0,0,1,3.57-2.8,6.88,6.88,0,0,1,3.43-1.15,2.77,2.77,0,0,1,1.4.37,1.12,1.12,0,0,1,.65,1,3.82,3.82,0,0,1-2.15,3.37,14.7,14.7,0,0,1-4.8,1.78,29.21,29.21,0,0,1-4.4.55Z" transform="translate(-3.5 -3.5)"/><path class="cls-1" d="M204.7,30.21a4.89,4.89,0,0,0-2.37.57,4.38,4.38,0,0,0-1.66,1.56,4,4,0,0,0-.6,2.15,2.48,2.48,0,0,0,1,2.1,4.22,4.22,0,0,0,2.6.72,4.77,4.77,0,0,0,2.26-.53,3.75,3.75,0,0,0,1.55-1.48,4.14,4.14,0,0,0,.56-2.14,2.8,2.8,0,0,0-.47-1.63,3,3,0,0,0-1.22-1,4,4,0,0,0-1.6-.33ZM204,36.4a3.46,3.46,0,0,1-2.1-.52,1.65,1.65,0,0,1-.7-1.42,3,3,0,0,1,.52-1.75,3.62,3.62,0,0,1,2.95-1.6,2.52,2.52,0,0,1,1.12.25,2.08,2.08,0,0,1,.84.74,2.1,2.1,0,0,1,.32,1.16,3.5,3.5,0,0,1-.35,1.53,3,3,0,0,1-1,1.17,2.86,2.86,0,0,1-1.58.44Zm-.36-4.66a.64.64,0,0,0-.54.28,4.36,4.36,0,0,0-.66.28c-.2.12-.3.23-.3.36a.36.36,0,0,0,.07.22,1,1,0,0,0,.25.21l.38-.18c-.42,1.61-.63,2.46-.63,2.56a.43.43,0,0,0,.12.35.64.64,0,0,0,.4.1.5.5,0,0,0,.41-.15,1.07,1.07,0,0,0,.19-.4l.27-1a2.75,2.75,0,0,0,1.33,1.57.68.68,0,0,0,.22,0,.54.54,0,0,0,.22,0l.14-.06a.3.3,0,0,0,.25-.28.53.53,0,0,0-.14-.32c-.1-.12-.18-.19-.25-.2h-.09s-.18-.13-.43-.38l-.4-.4a1.51,1.51,0,0,0,.89-.42,1.22,1.22,0,0,0,.37-.89,1.06,1.06,0,0,0-.16-.54A1.18,1.18,0,0,0,205,32a1.46,1.46,0,0,0-.71-.17,1.63,1.63,0,0,0-.43.05.44.44,0,0,0-.3-.1Zm.12,1.95.22-1a.79.79,0,0,1,.28,0,.44.44,0,0,1,.32.13.41.41,0,0,1,.13.29.57.57,0,0,1-.31.46,1.31,1.31,0,0,1-.64.21Z" transform="translate(-3.5 -3.5)"/></g></g></svg>